<svg width="24" height="24" viewBox="0 0 24 24" fill="none" xmlns="http://www.w3.org/2000/svg">
<path d="M19.1702 9H15.1502C14.8302 9 14.5402 8.86 14.3502 8.6C14.2564 8.47617 14.193 8.33198 14.1652 8.1791C14.1374 8.02622 14.146 7.86895 14.1902 7.72L14.7302 5.82C14.9902 4.91 14.8102 3.95 14.2402 3.19C13.6702 2.43 12.8002 2 11.8402 2H10.4902C10.0402 2 9.65023 2.3 9.53023 2.73L8.38023 6.74C8.17677 7.45897 7.77551 8.10637 7.22215 8.60846C6.66878 9.11056 5.98554 9.44718 5.25023 9.58L2.81023 10.02C2.33023 10.11 1.99023 10.52 1.99023 11V20C1.99023 20.55 2.44023 21 2.99023 21H5.41023C6.35023 21 7.28023 21.15 8.18023 21.45C9.28023 21.82 10.4202 22 11.5802 22H17.1702C18.7302 22 20.0002 20.73 20.0002 19.17C20.0002 18.71 19.8902 18.27 19.6902 17.89C20.2831 17.5118 20.7139 16.9265 20.8988 16.2481C21.0836 15.5696 21.0093 14.8466 20.6902 14.22C21.4802 13.72 22.0002 12.83 22.0002 11.83C22.0002 10.27 20.7302 9 19.1702 9ZM19.1702 12.67H18.0002C17.4502 12.67 17.0002 13.12 17.0002 13.67C17.0002 14.22 17.4502 14.67 18.0002 14.67H18.1702C18.6302 14.67 19.0002 15.04 19.0002 15.5C19.0002 15.96 18.6302 16.33 18.1702 16.33H17.0002C16.4502 16.33 16.0002 16.78 16.0002 17.33C16.0002 17.88 16.4502 18.33 17.0002 18.33H17.1702C17.6302 18.33 18.0002 18.7 18.0002 19.16C18.0002 19.62 17.6302 19.99 17.1702 19.99H11.5802C10.6402 19.99 9.71023 19.84 8.81024 19.54C7.71023 19.17 6.57023 18.99 5.41023 18.99H3.99023V11.82L5.61023 11.53C6.71311 11.333 7.73845 10.8301 8.56943 10.0787C9.4004 9.32728 10.0036 8.35755 10.3102 7.28L11.2502 3.99H11.8402C12.1602 3.99 12.4502 4.13 12.6402 4.39C12.8302 4.64 12.8902 4.96 12.8002 5.27L12.2602 7.17C12.0002 8.08 12.1802 9.04 12.7502 9.8C13.3202 10.56 14.1902 10.99 15.1502 10.99H19.1702C19.6302 10.99 20.0002 11.36 20.0002 11.82C20.0002 12.28 19.6302 12.65 19.1702 12.65V12.67Z" fill="currentColor"/>
</svg>
