<svg width="24" height="24" viewBox="0 0 24 24" fill="none" xmlns="http://www.w3.org/2000/svg">
<path d="M16.7245 5.05326C16.9876 5.23244 17.1686 5.50877 17.2279 5.82147C17.2872 6.13417 17.2199 6.45762 17.0407 6.72066C16.8615 6.9837 16.5852 7.16479 16.2725 7.22409C15.9598 7.28339 15.6364 7.21604 15.3733 7.03686C14.2654 6.28372 12.9374 5.923 11.6007 6.01217C10.2641 6.10134 8.99572 6.63526 7.99771 7.52888C6.99969 8.4225 6.32944 9.6244 6.09372 10.9431C5.85801 12.2618 6.07039 13.6215 6.69704 14.8055C7.32369 15.9896 8.32855 16.9298 9.55155 17.4765C10.7745 18.0232 12.1453 18.1449 13.4455 17.8222C14.7457 17.4995 15.9004 16.7509 16.7259 15.6958C17.5513 14.6407 17.9998 13.3397 18.0001 12.0001C18.0001 11.6818 18.1265 11.3766 18.3516 11.1515C18.5766 10.9265 18.8818 10.8001 19.2001 10.8001C19.5184 10.8001 19.8236 10.9265 20.0486 11.1515C20.2737 11.3766 20.4001 11.6818 20.4001 12.0001C20.3998 13.8756 19.7718 15.6972 18.6162 17.1744C17.4605 18.6517 15.8437 19.6997 14.0233 20.1515C12.203 20.6032 10.2838 20.4327 8.57154 19.6672C6.8593 18.9017 5.45252 17.5851 4.57535 15.9273C3.69819 14.2694 3.40109 12.3657 3.7314 10.5194C4.06171 8.67317 5.00042 6.99055 6.39797 5.73968C7.79553 4.48881 9.57152 3.74166 11.443 3.61726C13.3144 3.49286 15.1737 3.99837 16.7245 5.05326Z" fill="currentColor"/>
<path d="M16.2469 15.0073C16.1141 15.0922 15.9659 15.1502 15.8108 15.1779C15.6556 15.2055 15.4965 15.2024 15.3426 15.1685C15.1886 15.1347 15.0429 15.0709 14.9136 14.9808C14.7843 14.8906 14.674 14.7759 14.5891 14.6431C14.5042 14.5103 14.4462 14.3621 14.4185 14.207C14.3909 14.0518 14.394 13.8927 14.4279 13.7388C14.4617 13.5848 14.5255 13.4391 14.6156 13.3098C14.7058 13.1805 14.8205 13.0702 14.9533 12.9853L19.1317 10.3129C19.3998 10.147 19.7223 10.0933 20.0297 10.1633C20.3371 10.2333 20.6045 10.4214 20.7743 10.687C20.9441 10.9527 21.0025 11.2744 20.937 11.5828C20.8714 11.8911 20.6872 12.1613 20.4241 12.3349L16.2469 15.0073Z" fill="currentColor"/>
<path d="M22.6835 14.8921C22.806 15.1815 22.8101 15.5074 22.6949 15.7997C22.5798 16.0921 22.3545 16.3276 22.0675 16.4557C21.7806 16.5838 21.4548 16.5942 21.1603 16.4847C20.8658 16.3752 20.6259 16.1545 20.4923 15.8701L18.6827 11.8141C18.6149 11.6697 18.5765 11.5132 18.5699 11.3538C18.5632 11.1944 18.5885 11.0353 18.6441 10.8857C18.6996 10.7362 18.7845 10.5992 18.8937 10.4829C19.0028 10.3665 19.1341 10.2731 19.2798 10.2081C19.4254 10.1431 19.5826 10.1077 19.7421 10.1042C19.9016 10.1006 20.0602 10.1289 20.2087 10.1874C20.3571 10.2459 20.4924 10.3334 20.6066 10.4447C20.7209 10.5561 20.8117 10.6892 20.8739 10.8361L22.6835 14.8921Z" fill="currentColor"/>
</svg>
