<svg width="24" height="24" viewBox="0 0 24 24" fill="none" xmlns="http://www.w3.org/2000/svg">
<path d="M17.891 12C17.8921 13.1782 17.5429 14.3302 16.8876 15.3094C16.2323 16.2885 15.3006 17.0507 14.211 17.499C13.1213 17.9486 11.923 18.0655 10.7669 17.835C9.6109 17.6046 8.54898 17.0371 7.715 16.204C6.88177 15.3708 6.31477 14.309 6.08594 13.1531C5.85711 11.9972 5.97675 10.7994 6.4297 9.71158C6.88264 8.62379 7.64847 7.69504 8.63004 7.04315C9.61161 6.39125 10.7647 6.04559 11.943 6.05001C13.5218 6.05046 15.0359 6.67733 16.153 7.79301C16.7049 8.34562 17.1424 9.00165 17.4404 9.72354C17.7385 10.4454 17.8913 11.219 17.89 12M3.203 13.048H2.05C1.77187 13.048 1.5051 12.9377 1.30824 12.7412C1.11139 12.5447 1.00053 12.2781 1 12C0.999868 11.8622 1.02695 11.7257 1.0797 11.5983C1.13244 11.471 1.20981 11.3553 1.30737 11.258C1.40492 11.1606 1.52074 11.0834 1.64818 11.0309C1.77562 10.9784 1.91217 10.9516 2.05 10.952H3.203C3.48113 10.952 3.7479 11.0624 3.94476 11.2588C4.14161 11.4553 4.25247 11.7219 4.253 12C4.25313 12.1378 4.22605 12.2743 4.1733 12.4017C4.12056 12.529 4.04319 12.6447 3.94564 12.7421C3.84808 12.8394 3.73226 12.9166 3.60482 12.9691C3.47738 13.0216 3.34083 13.0484 3.203 13.048ZM21.95 13.048H20.807C20.529 13.0477 20.2625 12.9373 20.0659 12.7408C19.8692 12.5444 19.7585 12.278 19.758 12C19.7579 11.8622 19.785 11.7257 19.8377 11.5983C19.8904 11.471 19.9678 11.3553 20.0654 11.258C20.1629 11.1606 20.2787 11.0834 20.4062 11.0309C20.5336 10.9784 20.6702 10.9516 20.808 10.952H21.951C22.229 10.9523 22.4955 11.0627 22.6921 11.2592C22.8887 11.4556 22.9995 11.7221 23 12C23.0001 12.1378 22.973 12.2743 22.9203 12.4017C22.8676 12.529 22.7902 12.6447 22.6926 12.7421C22.5951 12.8394 22.4793 12.9166 22.3518 12.9691C22.2244 13.0216 22.0878 13.0484 21.95 13.048ZM11.985 4.24801C11.7069 4.24801 11.4401 4.13766 11.2432 3.94118C11.0464 3.7447 10.9355 3.47814 10.935 3.20001V2.04801C10.9349 1.91009 10.962 1.77351 11.0148 1.6461C11.0676 1.5187 11.1451 1.40298 11.2427 1.3056C11.3404 1.20822 11.4563 1.13109 11.5839 1.07865C11.7114 1.02621 11.8481 0.999481 11.986 1.00001C12.264 1.00027 12.5305 1.11074 12.7271 1.30719C12.9238 1.50364 13.0345 1.77005 13.035 2.04801V3.20001C13.0351 3.33784 13.008 3.47434 12.9553 3.60168C12.9026 3.72902 12.8252 3.84469 12.7276 3.94206C12.6301 4.03943 12.5143 4.11657 12.3868 4.16908C12.2594 4.22158 12.1228 4.2484 11.985 4.24801ZM11.985 23C11.707 23 11.4404 22.8898 11.2436 22.6935C11.0468 22.4973 10.9358 22.231 10.935 21.953V20.8C10.9349 20.6622 10.962 20.5257 11.0147 20.3983C11.0674 20.271 11.1448 20.1553 11.2424 20.058C11.3399 19.9606 11.4557 19.8834 11.5832 19.8309C11.7106 19.7784 11.8472 19.7516 11.985 19.752C12.263 19.7523 12.5295 19.8627 12.7261 20.0592C12.9228 20.2556 13.0335 20.522 13.034 20.8V21.952C13.0341 22.0898 13.007 22.2263 12.9543 22.3537C12.9016 22.481 12.8242 22.5967 12.7266 22.6941C12.6291 22.7914 12.5133 22.8686 12.3858 22.9211C12.2584 22.9736 12.1228 23.0004 11.985 23ZM5.753 6.82501C5.61423 6.8245 5.47694 6.79648 5.34907 6.74259C5.22119 6.68869 5.10527 6.60998 5.008 6.51101L4.189 5.70401C4.04127 5.55701 3.94058 5.36941 3.89972 5.16505C3.85887 4.9607 3.87969 4.7488 3.95954 4.55631C4.03939 4.36381 4.17466 4.19939 4.34817 4.08396C4.52169 3.96852 4.7256 3.90728 4.934 3.90801C5.214 3.90801 5.482 4.01901 5.679 4.21601L6.498 5.03301C6.69353 5.22925 6.80332 5.49498 6.80332 5.77201C6.80332 6.04903 6.69353 6.31477 6.498 6.51101C6.40073 6.60998 6.28481 6.68869 6.15693 6.74259C6.02906 6.79648 5.89177 6.8245 5.753 6.82501ZM19.024 20.046C18.7486 20.045 18.4847 19.9358 18.289 19.742L17.471 18.925C17.2748 18.7602 17.1458 18.5291 17.1085 18.2756C17.0712 18.022 17.1282 17.7636 17.2688 17.5493C17.4093 17.3349 17.6235 17.1796 17.8709 17.1126C18.1182 17.0457 18.3816 17.0718 18.611 17.186C18.7417 17.25 18.855 17.3373 18.951 17.448L19.769 18.265C19.9642 18.4612 20.0738 18.7267 20.0738 19.0035C20.0738 19.2803 19.9642 19.5458 19.769 19.742C19.6709 19.8392 19.5546 19.916 19.4268 19.9682C19.2989 20.0204 19.1621 20.0468 19.024 20.046ZM18.216 6.82501C18.0605 6.8256 17.9068 6.79164 17.766 6.72558C17.6252 6.65951 17.5008 6.563 17.4019 6.44301C17.3029 6.32301 17.2319 6.18254 17.1939 6.03174C17.1558 5.88093 17.1518 5.72357 17.182 5.57101C17.222 5.36701 17.324 5.18001 17.472 5.03301L18.29 4.21601C18.4895 4.03104 18.7531 3.93075 19.0251 3.93627C19.2971 3.94179 19.5564 4.05268 19.7483 4.24559C19.9401 4.4385 20.0496 4.69836 20.0537 4.97041C20.0578 5.24247 19.956 5.50547 19.77 5.70401L18.95 6.51101C18.7562 6.70823 18.4925 6.82106 18.216 6.82501ZM4.934 20.046C4.79593 20.0468 4.65906 20.0204 4.53123 19.9682C4.40339 19.916 4.28709 19.8392 4.189 19.742C3.99353 19.5459 3.88377 19.2804 3.88377 19.0035C3.88377 18.7266 3.99353 18.4611 4.189 18.265L5.008 17.448C5.10559 17.3497 5.22166 17.2718 5.34952 17.2185C5.47738 17.1653 5.61451 17.1379 5.753 17.1379C5.89149 17.1379 6.02862 17.1653 6.15648 17.2185C6.28434 17.2718 6.40041 17.3497 6.498 17.448C6.69323 17.6442 6.80282 17.9097 6.80282 18.1865C6.80282 18.4633 6.69323 18.7288 6.498 18.925L5.679 19.742C5.58091 19.8392 5.46461 19.916 5.33678 19.9682C5.20894 20.0204 5.07207 20.0468 4.934 20.046Z" fill="currentColor"/>
</svg>
