<svg width="24" height="24" viewBox="0 0 24 24" fill="none" xmlns="http://www.w3.org/2000/svg">
<path d="M12.3848 3C12.8944 3.00009 13.3074 3.41328 13.3076 3.92285V11.4609H20.0771C20.5868 11.4611 21 11.8751 21 12.3848C20.9999 12.8944 20.5867 13.3074 20.0771 13.3076H13.3076V20.0771C13.3074 20.5867 12.8944 20.9999 12.3848 21C11.8751 21 11.4611 20.5868 11.4609 20.0771V13.3076H3.92285C3.41328 13.3074 3.00009 12.8944 3 12.3848C3 11.8751 3.41322 11.4611 3.92285 11.4609H11.4609V3.92285C11.4611 3.41322 11.8751 3 12.3848 3Z" fill="currentColor"/>
</svg>
