<svg width="24" height="24" viewBox="0 0 24 24" fill="none" xmlns="http://www.w3.org/2000/svg">
<path fill-rule="evenodd" clip-rule="evenodd" d="M15.5996 2V4.41598C16.0071 4.60868 16.3984 4.83409 16.7696 5.09L17.1276 4.88202L18.8605 3.88302L19.8606 5.61402L21.4596 8.38601L22.4595 10.118L20.7285 11.118L20.3706 11.323C20.3906 11.55 20.4006 11.775 20.4006 12C20.4006 12.225 20.3906 12.45 20.3706 12.677L20.7285 12.882L22.4595 13.882L21.4596 15.614L19.8606 18.386L18.8606 20.117L17.1276 19.118L16.7696 18.91C16.3984 19.1659 16.0071 19.3913 15.5996 19.584V22H8.40055V19.584C7.99298 19.3913 7.6017 19.1659 7.23055 18.91L6.87153 19.118L5.13955 20.117L4.13957 18.386L2.53954 15.614L1.53955 13.882L3.27158 12.882L3.62854 12.677C3.60945 12.4518 3.59979 12.226 3.59957 12C3.59957 11.775 3.60955 11.55 3.62854 11.323L3.27154 11.118L1.53955 10.118L2.53954 8.38597L4.13957 5.61402L5.13955 3.88302L6.87158 4.88202L7.23055 5.09C7.6017 4.83409 7.99298 4.60868 8.40055 4.41598V2H15.5996ZM13.5996 4.00002H10.4006V5.81C9.25757 6.104 8.23757 6.701 7.43554 7.51798L5.87155 6.61405L4.27157 9.38605L5.83757 10.29C5.68757 10.835 5.59954 11.4071 5.59954 12C5.59954 12.593 5.68757 13.1651 5.83757 13.71L4.27157 14.6141L5.87155 17.3861L7.43554 16.482C8.23757 17.2991 9.25757 17.8961 10.4006 18.1901V20H13.5996V18.1901C14.7426 17.8961 15.7626 17.2991 16.5645 16.482L18.1275 17.3861L19.7286 14.6141L18.1626 13.71C18.3126 13.1651 18.4005 12.593 18.4005 12C18.4005 11.407 18.3126 10.835 18.1626 10.29L19.7286 9.38605L18.1275 6.61405L16.5645 7.51803C15.7626 6.70105 14.7426 6.10405 13.5996 5.81005V4.00002ZM11.9999 8C14.2093 8 16 9.79072 16 12C16 14.2093 14.2093 16 11.9999 16C9.79068 16 7.99996 14.2093 7.99996 12C7.99996 9.79072 9.79068 8 11.9999 8ZM11.9999 10C10.8952 10 9.99997 10.8953 9.99997 12C9.99997 13.1047 10.8952 14 11.9999 14C13.1046 14 14 13.1047 14 12C14 10.8953 13.1046 10 11.9999 10Z" fill="currentColor"/>
</svg>
