<svg width="24" height="24" viewBox="0 0 24 24" fill="none" xmlns="http://www.w3.org/2000/svg">
<path d="M21.0002 3H18.5802C17.6402 3 16.7102 2.85 15.8102 2.55C14.7102 2.18 13.5702 2 12.4102 2H6.82023C5.26023 2 3.99023 3.27 3.99023 4.83C3.99023 5.29 4.10023 5.73 4.30023 6.11C3.70739 6.48816 3.27656 7.07349 3.0917 7.75194C2.90683 8.43039 2.98117 9.15336 3.30023 9.78C2.51023 10.28 1.99023 11.17 1.99023 12.17C1.99023 13.73 3.26023 15 4.82023 15H8.84023C9.16023 15 9.45023 15.14 9.64023 15.4C9.83023 15.65 9.89023 15.97 9.80023 16.28L9.26023 18.18C9.00023 19.09 9.18023 20.05 9.75023 20.81C10.3202 21.57 11.1902 22 12.1502 22H13.5002C13.9502 22 14.3402 21.7 14.4602 21.27L15.6102 17.26C15.8137 16.541 16.215 15.8936 16.7683 15.3915C17.3217 14.8894 18.0049 14.5528 18.7402 14.42L21.1802 13.98C21.6602 13.89 22.0002 13.48 22.0002 13V4C22.0002 3.45 21.5502 3 21.0002 3ZM20.0002 12.17L18.3802 12.46C17.2774 12.657 16.252 13.1599 15.421 13.9113C14.5901 14.6627 13.9869 15.6325 13.6802 16.71L12.7402 20H12.1502C11.8302 20 11.5402 19.86 11.3502 19.6C11.2564 19.4762 11.193 19.332 11.1652 19.1791C11.1374 19.0262 11.146 18.8689 11.1902 18.72L11.7302 16.82C11.9902 15.91 11.8102 14.95 11.2402 14.19C10.6702 13.43 9.80023 13 8.84023 13H4.82023C4.36023 13 3.99023 12.63 3.99023 12.17C3.99023 11.71 4.36023 11.34 4.82023 11.34H5.99023C6.54023 11.34 6.99023 10.89 6.99023 10.34C6.99023 9.79 6.54023 9.34 5.99023 9.34H5.82023C5.36023 9.34 4.99023 8.97 4.99023 8.51C4.99023 8.05 5.36023 7.68 5.82023 7.68H6.99023C7.54023 7.68 7.99023 7.23 7.99023 6.68C7.99023 6.13 7.54023 5.68 6.99023 5.68H6.82023C6.36023 5.68 5.99023 5.31 5.99023 4.85C5.99023 4.39 6.36023 4.02 6.82023 4.02H12.4102C13.3502 4.02 14.2802 4.17 15.1802 4.47C16.2802 4.84 17.4202 5.02 18.5802 5.02H20.0002V12.19V12.17Z" fill="currentColor"/>
</svg>
