<svg width="24" height="24" viewBox="0 0 24 24" fill="none" xmlns="http://www.w3.org/2000/svg">
<path fill-rule="evenodd" clip-rule="evenodd" d="M20.3999 4.19995H3.5999C3.28164 4.19995 2.97642 4.32638 2.75137 4.55142C2.52633 4.77647 2.3999 5.08169 2.3999 5.39995V18.6C2.3999 18.9182 2.52633 19.2234 2.75137 19.4485C2.97642 19.6735 3.28164 19.8 3.5999 19.8H20.3999C20.7182 19.8 21.0234 19.6735 21.2484 19.4485C21.4735 19.2234 21.5999 18.9182 21.5999 18.6V5.39995C21.5999 5.08169 21.4735 4.77647 21.2484 4.55142C21.0234 4.32638 20.7182 4.19995 20.3999 4.19995ZM4.7999 17.4V6.59995H19.1999V17.4H4.7999Z" fill="currentColor"/>
<path fill-rule="evenodd" clip-rule="evenodd" d="M21.1775 6.31315L12.7235 13.5132C12.5054 13.6987 12.2283 13.8002 11.942 13.7993C11.6557 13.7985 11.3791 13.6953 11.1623 13.5084L2.81625 6.30835C1.97385 5.58235 2.48745 4.19995 3.59985 4.19995H20.3999C21.5159 4.19995 22.0271 5.58955 21.1775 6.31315ZM6.82785 6.59995L11.9519 11.0196L17.1383 6.59995H6.82785Z" fill="currentColor"/>
</svg>
